<svg id="OBJECTS" xmlns="http://www.w3.org/2000/svg" viewBox="0 0 318.43 266.1"><defs><style>.cls-1{opacity:0.41;}.cls-2,.cls-4{fill:#c5d9ff;}.cls-3{opacity:0.88;}.cls-4{opacity:0.31;}.cls-10,.cls-11,.cls-12,.cls-14,.cls-4{isolation:isolate;}.cls-5{fill:#2568bd;}.cls-11,.cls-6{fill:#243762;}.cls-7{fill:#fff;}.cls-14,.cls-8{fill:#ecf1f7;}.cls-9{fill:none;}.cls-10{fill:#af9cda;opacity:0.33;}.cls-11,.cls-12{opacity:0.29;}.cls-12{fill:#26569e;}.cls-13{fill:#f7a9b4;}.cls-14{opacity:0.35;}</style></defs><g class="cls-1"><path class="cls-2" d="M318.27,169.82a91.24,91.24,0,0,0-.42-15.59c-2.75-24.31-15.22-47.23-33.57-63.4-6.55-5.77-14-10.94-18.26-18.55-7.18-12.83-6.64-27.57-15.54-40.23A75.29,75.29,0,0,0,213.91,4.41c-43.69-15.14-104.86,9.51-99.35,62.15a3.86,3.86,0,0,0,.07.81A19.16,19.16,0,0,1,96.72,87.72l-.87,0c-40.31.95-75,32-82.43,71.4-4.78,25.32,3,53.07,21.56,71,13.83,13.37,32.38,20.72,50.93,25.76,37.21,10.12,76.37,12.24,114.74,8.37,35.91-3.62,73.79-13.94,97-41.57A90.7,90.7,0,0,0,318.27,169.82Z" transform="translate(0 0)"/></g><g class="cls-3"><path class="cls-2" d="M285.12,172.3a71.15,71.15,0,0,0-.33-12.21c-2.15-19-11.92-37-26.3-49.67-5.13-4.52-11-8.57-14.3-14.53-5.63-10-5.2-21.6-12.18-31.52a59,59,0,0,0-28.64-21.65c-34.19-11.86-82.19,7.49-77.83,48.69V92a15,15,0,0,1-14,16q-.37,0-.75,0c-31.58.75-58.76,25.1-64.58,55.94-3.74,19.84,2.39,41.57,16.9,55.61,10.83,10.47,25.36,16.22,39.9,20.18,29.15,7.92,59.82,9.59,89.88,6.56,28.13-2.84,57.8-10.93,76-32.58A71,71,0,0,0,285.12,172.3Z" transform="translate(0 0)"/></g><circle class="cls-4" cx="299.76" cy="39.27" r="9.86" transform="translate(192.39 321.88) rotate(-76.66)"/><circle class="cls-4" cx="83.23" cy="27.84" r="11.43" transform="translate(4.7 67) rotate(-45)"/><circle class="cls-4" cx="14.76" cy="247.43" r="14.76"/><circle class="cls-5" cx="131.27" cy="78.6" r="52.33"/><path class="cls-6" d="M167.6,116.29a.51.51,0,0,1-.35-.15.49.49,0,0,1,0-.68l0,0A51.83,51.83,0,0,0,94,42.14h0a.5.5,0,0,1-.71-.71A52.83,52.83,0,1,1,168,116.14h0A.49.49,0,0,1,167.6,116.29Z" transform="translate(0 0)"/><circle class="cls-7" cx="131.27" cy="78.6" r="39.82"/><path class="cls-6" d="M131.27,118.92a40.32,40.32,0,0,1,0-80.64h0a.5.5,0,0,1,0,1,39.32,39.32,0,0,0,0,78.64h0a.52.52,0,0,1,.5.5A.5.5,0,0,1,131.27,118.92Z" transform="translate(0 0)"/><path class="cls-6" d="M141.58,86.21H130.75a4,4,0,0,1-4-4v-15a3.5,3.5,0,0,1,7,0v12h7.86a3.5,3.5,0,0,1,0,7Z" transform="translate(0 0)"/><path class="cls-6" d="M50,96.78l56.37,56.37a28.24,28.24,0,0,0,39.94,0h0l6.74-6.74a6.52,6.52,0,0,0,0-9.21l-23-23a6.52,6.52,0,0,0-9.21,0l-11.5,11.5a2.31,2.31,0,0,1-3.26,0L78.18,97.8a2.28,2.28,0,0,1,0-3.22L89.53,83.21a6.5,6.5,0,0,0,0-9.19l0,0L65.91,50.37a6.53,6.53,0,0,0-9.14-.08l-6.4,6.18a28.26,28.26,0,0,0-.71,40Z" transform="translate(0 0)"/><path class="cls-8" d="M51.79,57.64,83.46,89.31l1.09-1.08,5-5a6.5,6.5,0,0,0,0-9.19l0,0L65.93,50.39a6.53,6.53,0,0,0-9.14-.08l-6.4,6.18Z" transform="translate(0 0)"/><path class="cls-6" d="M83.46,90l-32-32-1.83-1.47L56.44,50a7,7,0,0,1,9.83.09L89.9,73.68a7,7,0,0,1,0,9.9l0,0ZM51.18,56.47l1,.81L83.5,88.61l5.72-5.72a6,6,0,0,0,0-8.49l0,0L65.6,50.75a6.06,6.06,0,0,0-8.44-.07Z" transform="translate(0 0)"/><path class="cls-8" d="M116.18,121l31.68,31.67,1.09-1.08,5-5a6.5,6.5,0,0,0,0-9.19l0,0-23.63-23.63a6.51,6.51,0,0,0-9.13-.08l-6.4,6.18Z" transform="translate(0 0)"/><path class="cls-6" d="M147.9,153.37l-32-32-1.83-1.47,6.8-6.58a7.06,7.06,0,0,1,9.84.09L154.33,137a7,7,0,0,1,0,9.9l0,0Zm-32.33-33.55,1,.82L147.89,152l5.72-5.72a6,6,0,0,0,0-8.49l0,0L130,114.11a6,6,0,0,0-8.43-.08Z" transform="translate(0 0)"/><line class="cls-9" x1="54.21" y1="53.9" x2="73.51" y2="73.2"/><path class="cls-6" d="M73.51,73.7a.52.52,0,0,1-.35-.14l-19.3-19.3a.5.5,0,0,1,.71-.71l19.3,19.3a.51.51,0,0,1,0,.71A.54.54,0,0,1,73.51,73.7Z" transform="translate(0 0)"/><line class="cls-9" x1="130.98" y1="130.67" x2="150.28" y2="149.98"/><path class="cls-6" d="M150.29,150.48a.49.49,0,0,1-.36-.15L130.63,131a.5.5,0,0,1,.71-.71l19.3,19.3a.5.5,0,0,1,0,.71h0A.51.51,0,0,1,150.29,150.48Z" transform="translate(0 0)"/><path class="cls-6" d="M235,249.14l-73.9-10.93a15.3,15.3,0,0,1-12.9-17.37l26.5-179.18a15.3,15.3,0,0,1,17.37-12.9L266,39.69a15.29,15.29,0,0,1,12.89,17.36h0L252.35,236.21A15.3,15.3,0,0,1,235,249.14Z" transform="translate(0 0)"/><rect class="cls-8" x="128.28" y="90.49" width="171.05" height="92.75" transform="matrix(0.15, -0.99, 0.99, 0.15, 47.14, 328.35)"/><rect class="cls-5" x="218.96" y="12.23" width="12.84" height="92.75" transform="translate(134.44 272.99) rotate(-81.59)"/><path class="cls-8" d="M199.76,238a5.22,5.22,0,0,1-.88-.07,5.95,5.95,0,1,1,.88.07Zm0-11a5.3,5.3,0,1,0,.74.1,4.78,4.78,0,0,0-.75-.08Z" transform="translate(0 0)"/><path class="cls-8" d="M213,43.88h-.28a1.94,1.94,0,1,1,2.18-1.63h0A1.92,1.92,0,0,1,213,43.88ZM213,41a1,1,0,0,0-.92.79,1,1,0,0,0,.18.69.91.91,0,0,0,.6.37,1,1,0,0,0,.69-.18.86.86,0,0,0,.36-.6h0a.9.9,0,0,0-.17-.69.86.86,0,0,0-.6-.36Z" transform="translate(0 0)"/><path class="cls-8" d="M242.82,48.28h-.28L219.18,44.8a1.84,1.84,0,0,1-1.26-.76,1.93,1.93,0,0,1,.39-2.69,2,2,0,0,1,1.43-.36l23.41,3.46a1.93,1.93,0,0,1-.33,3.83ZM219.41,42a.9.9,0,0,0-.13,1.79l23.4,3.46a.91.91,0,0,0,1-.75v0a.87.87,0,0,0-.17-.68,1,1,0,0,0-.61-.37l-23.4-3.46Z" transform="translate(0 0)"/><path class="cls-2" d="M247.57,176.5l-64-9.47a1.91,1.91,0,0,0-2.16,1.61l-2.47,16.57a1.92,1.92,0,0,0,1.61,2.17h0l54.72,8.09,5.64,7.78,1-6.79,2.64.39a1.92,1.92,0,0,0,2.17-1.61l2.45-16.6A1.9,1.9,0,0,0,247.57,176.5Z" transform="translate(0 0)"/><path class="cls-6" d="M235.27,196h-.09l-54.72-8.1a2.4,2.4,0,0,1-2-2.73l2.45-16.6a2.4,2.4,0,0,1,2.74-2l14.79,2.19a.49.49,0,0,1,.42.57.5.5,0,0,1-.57.43l-14.79-2.18a1.42,1.42,0,0,0-1.6,1.18l-2.45,16.61a1.34,1.34,0,0,0,.26,1,1.42,1.42,0,0,0,.92.56L235.35,195a.48.48,0,0,1,.42.55v0A.49.49,0,0,1,235.27,196Z" transform="translate(0 0)"/><path class="cls-2" d="M257.74,107.7l-64-9.47a1.92,1.92,0,0,0-2.17,1.61l-2.45,16.6a1.9,1.9,0,0,0,1.59,2.17h0l54.72,8.09,5.63,7.78,1-6.79,2.64.39a1.91,1.91,0,0,0,2.16-1.61l2.46-16.61A1.9,1.9,0,0,0,257.74,107.7Z" transform="translate(0 0)"/><path class="cls-6" d="M251.4,135.76l-6.22-8.55-54.51-8.07a2.41,2.41,0,0,1-2-2.73.51.51,0,0,1,.57-.42.48.48,0,0,1,.42.55v0a1.38,1.38,0,0,0,.27,1,1.42,1.42,0,0,0,.92.56l54.88,8.09,5,7,.9-6.07,3.13.46a1.4,1.4,0,0,0,1.6-1.17h0L258,115.32a.51.51,0,0,1,.57-.42.51.51,0,0,1,.42.57h0l-1.63,11a2.37,2.37,0,0,1-1,1.58,2.32,2.32,0,0,1-1.78.45l-2.15-.32Z" transform="translate(0 0)"/><path class="cls-5" d="M176.73,129.09l64,9.47a1.91,1.91,0,0,1,1.61,2.16l-2.46,16.61a1.91,1.91,0,0,1-2.16,1.61L183,150.84l-7.65,5.81,1-6.79-2.64-.39a1.9,1.9,0,0,1-1.61-2.15v0l2.45-16.6A1.91,1.91,0,0,1,176.73,129.09Z" transform="translate(0 0)"/><path class="cls-6" d="M238,159.46h-.35l-34.16-5.05a.5.5,0,0,1,.14-1l34.16,5.05a1.4,1.4,0,0,0,1.6-1.17h0l2.46-16.61a1.42,1.42,0,0,0-1.19-1.6.5.5,0,0,1-.42-.56.51.51,0,0,1,.57-.43,2.42,2.42,0,0,1,2,2.74l-2.46,16.6a2.43,2.43,0,0,1-2.38,2.06Z" transform="translate(0 0)"/><rect class="cls-7" x="194.58" y="167.3" width="15.74" height="92.75" transform="matrix(0.15, -0.99, 0.99, 0.15, -38.53, 382.69)"/><path class="cls-2" d="M171.28,209a5.58,5.58,0,1,1-4.7-6.34,5.58,5.58,0,0,1,4.7,6.34Z" transform="translate(0 0)"/><path class="cls-10" d="M239,224.07a4.48,4.48,0,0,1-.73,0l-59.46-8.81a4.9,4.9,0,0,1-3.27-2,5,5,0,0,1,4.72-7.89l59.46,8.8a5,5,0,0,1-.72,9.89Zm-.59-1a4,4,0,1,0,1.17-7.86l-59.46-8.8a4,4,0,0,0-1.17,7.87Z" transform="translate(0 0)"/><path class="cls-7" d="M186.18,54.62h-.28a2,2,0,0,1-1.65-2.23,1.92,1.92,0,0,1,.77-1.28,2,2,0,0,1,2.77.55,2,2,0,0,1,.33,1.31h0A2,2,0,0,1,186.18,54.62Zm0-2.92a.91.91,0,1,0,.95,1.1h0a.91.91,0,0,0-.18-.71.92.92,0,0,0-.63-.38Z" transform="translate(0 0)"/><path class="cls-7" d="M191.59,55.42h-.29a2,2,0,0,1,.57-3.88,1.93,1.93,0,0,1,1.29.78,2,2,0,0,1-.41,2.73A1.87,1.87,0,0,1,191.59,55.42Zm0-2.92a1,1,0,0,0-.94.82.91.91,0,0,0,.18.71.92.92,0,0,0,.63.38,1,1,0,0,0,1.08-.8h0a.91.91,0,0,0-.18-.71,1,1,0,0,0-.62-.38Z" transform="translate(0 0)"/><path class="cls-7" d="M196.9,56.21h-.29a1.89,1.89,0,1,1,.29,0Zm0-2.92a1,1,0,0,0-.57.19,1,1,0,0,0-.07,1.41,1,1,0,0,0,.5.3,1,1,0,0,0,.86-1.8,1,1,0,0,0-.58-.09Z" transform="translate(0 0)"/><path class="cls-6" d="M271.58,72.44h-.07L186.58,59.88a.51.51,0,0,1-.42-.57.51.51,0,0,1,.57-.42h0l84.92,12.56a.5.5,0,0,1-.07,1Z" transform="translate(0 0)"/><path class="cls-7" d="M236.18,180.32h-.08l-45.31-6.7a.51.51,0,0,1-.42-.57.49.49,0,0,1,.55-.42h0l45.32,6.7a.51.51,0,0,1,.42.57h0A.5.5,0,0,1,236.18,180.32Z" transform="translate(0 0)"/><path class="cls-7" d="M209.35,181.88h-.07L190,179a.49.49,0,0,1-.42-.57.5.5,0,0,1,.57-.43l19.28,2.86a.5.5,0,0,1-.07,1Z" transform="translate(0 0)"/><path class="cls-7" d="M202.85,186.09h-.07l-13.54-2a.51.51,0,0,1-.42-.57h0a.51.51,0,0,1,.57-.42l13.53,2a.48.48,0,0,1,.42.53v0A.5.5,0,0,1,202.85,186.09Z" transform="translate(0 0)"/><path class="cls-7" d="M235.38,185.73h-.08l-19.93-2.94a.51.51,0,0,1-.42-.57.48.48,0,0,1,.55-.42h0l19.93,2.95a.5.5,0,0,1,.42.56A.5.5,0,0,1,235.38,185.73Z" transform="translate(0 0)"/><path class="cls-7" d="M230.64,142.72h-.07L185.26,136a.5.5,0,1,1,.14-1l45.32,6.71a.5.5,0,0,1,.42.56A.51.51,0,0,1,230.64,142.72Z" transform="translate(0 0)"/><path class="cls-7" d="M203.82,144.28h-.08l-19.28-2.85a.5.5,0,1,1,.14-1l19.29,2.85a.5.5,0,1,1-.07,1Z" transform="translate(0 0)"/><path class="cls-7" d="M223.86,152.41h-.08l-39.11-6.07a.5.5,0,0,1,.15-1l39.11,6.07a.5.5,0,0,1-.07,1Z" transform="translate(0 0)"/><path class="cls-7" d="M229.84,148.13h-.07l-19.93-3a.49.49,0,0,1-.42-.55h0a.5.5,0,0,1,.56-.43l19.94,3a.5.5,0,0,1-.08,1Z" transform="translate(0 0)"/><path class="cls-5" d="M185,66.67l64,9.47a1.92,1.92,0,0,1,1.61,2.17h0l-2.46,16.6a1.91,1.91,0,0,1-2.16,1.61l-54.76-8.1-7.61,5.79,1-6.79L181.93,87a1.9,1.9,0,0,1-1.61-2.15v0l2.45-16.6A1.92,1.92,0,0,1,185,66.67Z" transform="translate(0 0)"/><path class="cls-6" d="M248.1,95.41H248a.5.5,0,0,1-.42-.56l2.46-16.64a1.38,1.38,0,0,0-.27-1,1.42,1.42,0,0,0-.92-.56l-39.7-5.89a.49.49,0,0,1-.42-.57.5.5,0,0,1,.57-.43l39.74,5.87a2.45,2.45,0,0,1,1.58,1,2.38,2.38,0,0,1,.44,1.79L248.64,95A.51.51,0,0,1,248.1,95.41Z" transform="translate(0 0)"/><path class="cls-7" d="M238.86,80.3h-.07l-45.32-6.71a.5.5,0,0,1-.42-.56.51.51,0,0,1,.57-.43l45.32,6.71a.5.5,0,0,1,.42.56A.51.51,0,0,1,238.86,80.3Z" transform="translate(0 0)"/><path class="cls-7" d="M212,81.86H212L192.68,79a.5.5,0,0,1,.14-1l19.29,2.85a.5.5,0,1,1-.07,1Z" transform="translate(0 0)"/><path class="cls-7" d="M232.08,90H232l-39.11-6.07a.5.5,0,1,1,.15-1L232.18,89a.51.51,0,0,1,.42.57A.49.49,0,0,1,232.08,90Z" transform="translate(0 0)"/><path class="cls-7" d="M238.06,85.71H238l-19.93-3a.48.48,0,0,1-.42-.53v0a.5.5,0,0,1,.56-.43l20,3a.5.5,0,1,1-.08,1Z" transform="translate(0 0)"/><path class="cls-7" d="M246.39,112.21h-.07L201,105.51a.51.51,0,0,1-.43-.57.51.51,0,0,1,.58-.43l45.32,6.7a.5.5,0,0,1,.42.56A.51.51,0,0,1,246.39,112.21Z" transform="translate(0 0)"/><path class="cls-7" d="M219.57,113.72h-.08l-19.31-2.86a.5.5,0,0,1,.14-1l19.29,2.85a.51.51,0,0,1,.47.54.5.5,0,0,1-.54.46Z" transform="translate(0 0)"/><path class="cls-7" d="M213.07,117.92H213l-13.53-2a.5.5,0,0,1,.14-1l13.54,2a.51.51,0,0,1,.42.57h0A.49.49,0,0,1,213.07,117.92Z" transform="translate(0 0)"/><path class="cls-7" d="M245.59,117.56h-.07l-19.93-3a.5.5,0,0,1,.14-1l19.94,3a.5.5,0,1,1-.08,1Z" transform="translate(0 0)"/><path class="cls-5" d="M154.25,233.77,51.6,245.33a3.58,3.58,0,0,1-4-3.11v-.05L40.18,176.4a.2.2,0,0,1,.17-.21l109.4-12.32a.18.18,0,0,1,.2.16h0l7.42,65.78A3.57,3.57,0,0,1,154.25,233.77Z" transform="translate(0 0)"/><path class="cls-6" d="M51.18,245.86a4.11,4.11,0,0,1-4-3.65l-7.41-65.76a.68.68,0,0,1,.59-.76h0l109.4-12.33a.69.69,0,0,1,.76.61l7.41,65.79a4,4,0,0,1-.86,3,4.07,4.07,0,0,1-2.72,1.51L51.65,245.83A3.71,3.71,0,0,1,51.18,245.86Zm-10.45-69.2,7.38,65.45a3.09,3.09,0,0,0,3.41,2.73h0l102.65-11.57.06.5-.06-.5a3,3,0,0,0,2.06-1.13,3.07,3.07,0,0,0,.65-2.26l-7.38-65.48Z" transform="translate(0 0)"/><path class="cls-11" d="M149.44,233.77,56.62,245.33c-2,.23,28.76-39.2,28.54-41.17l-45-27.76a.2.2,0,0,1,.17-.21l109.4-12.32a.18.18,0,0,1,.2.16h0l-37.42,37C112.78,203,151.4,233.55,149.44,233.77Z" transform="translate(0 0)"/><path class="cls-6" d="M40.25,176.71l-.08-.73-.14-.14.11-.11h0l45.12-44.62A8.71,8.71,0,0,1,96,129.88l53.77,33.4a.63.63,0,0,1,.28.65.62.62,0,0,1-.53.48ZM91.4,129.57A7.66,7.66,0,0,0,86,131.81L41.76,175.54l106.53-12-52.83-32.8A7.67,7.67,0,0,0,91.4,129.57Z" transform="translate(0 0)"/><path class="cls-12" d="M40.38,176.21l45.24-44.74a8.22,8.22,0,0,1,10.11-1.15l53.77,33.4a.11.11,0,0,1,.07.14.12.12,0,0,1-.07.07L40.18,176.21" transform="translate(0 0)"/><path class="cls-13" d="M90.62,197.26l-34,47.32,92.82-10.46-43.68-38.56a10.27,10.27,0,0,0-14.51.91C91,196.72,90.82,197,90.62,197.26Z" transform="translate(0 0)"/><path class="cls-6" d="M55.55,245.21,90.18,197l.41.29-.41-.29a10.8,10.8,0,0,1,15.06-2.44,9.37,9.37,0,0,1,.85.68l44.53,39.31ZM99,193.5A9.73,9.73,0,0,0,91,197.57L57.68,244l90.58-10.2-42.83-37.82A9.82,9.82,0,0,0,99,193.49Z" transform="translate(0 0)"/><path class="cls-7" d="M45.9,143.78l71.5-8c4.69-.53,8.86,2.34,9.32,6.41L131.31,183l-19.88,18.24-26.25,3-26-16.28-4.46-39.52Z" transform="translate(0 0)"/><path class="cls-6" d="M85,204.68l-26.3-16.47-4.45-39.49-6.81-5.63,69.87-7.88a9.64,9.64,0,0,1,6.58,1.57,7.4,7.4,0,0,1,3.29,5.28l4.62,41-20.19,18.56ZM59.67,187.63l25.6,16,25.91-2.91,19.58-18-4.58-40.51a6.39,6.39,0,0,0-2.86-4.57,8.67,8.67,0,0,0-5.9-1.4l-69.88,7.88,7.64,4Z" transform="translate(0 0)"/><path class="cls-11" d="M90.62,193.21l-34,51.4,92.82-10.46-43.68-42.64a10.27,10.27,0,0,0-14.5.89C91,192.66,90.82,192.93,90.62,193.21Z" transform="translate(0 0)"/><path class="cls-5" d="M90.62,197.26l-34,47.32,92.82-10.46-43.68-38.56a10.27,10.27,0,0,0-14.51.91C91,196.72,90.82,197,90.62,197.26Z" transform="translate(0 0)"/><path class="cls-6" d="M55.55,245.21,90.18,197l.41.29-.41-.29a10.8,10.8,0,0,1,15.06-2.44,9.37,9.37,0,0,1,.85.68l44.53,39.31ZM99,193.5A9.73,9.73,0,0,0,91,197.57L57.68,244l90.58-10.2-42.83-37.82A9.82,9.82,0,0,0,99,193.49Z" transform="translate(0 0)"/><path class="cls-14" d="M93.92,207.74l-25,34.74,68.17-7.68L105,206.48a7.53,7.53,0,0,0-10.64.7A6.12,6.12,0,0,0,93.92,207.74Z" transform="translate(0 0)"/><line class="cls-9" x1="40.42" y1="176.28" x2="85.16" y2="204.16"/><rect class="cls-6" x="62.29" y="163.88" width="1" height="52.71" transform="translate(-131.87 142.91) rotate(-58.07)"/><line class="cls-9" x1="149.97" y1="163.94" x2="112.56" y2="201.07"/><rect class="cls-6" x="104.91" y="182.02" width="52.71" height="1" transform="translate(-90.48 145.5) rotate(-44.8)"/><path class="cls-8" d="M56.73,166.62,44.25,168l-2-17.8a6,6,0,0,1,5.28-6.63l.57-.07a6,6,0,0,1,6.63,5.29Z" transform="translate(0 0)"/><path class="cls-6" d="M43.81,168.58l-2.06-18.3a6.49,6.49,0,0,1,5.72-7.18h0L48,143a6.48,6.48,0,0,1,7.18,5.7v0l2.07,18.3Zm5-24.58h-.62l-.57.07a5.47,5.47,0,0,0-4.84,6.05v0l2,17.31,11.4-1.24-2-17.3A5.49,5.49,0,0,0,48.78,144Z" transform="translate(0 0)"/><path class="cls-6" d="M65.18,157.35a.49.49,0,0,1-.5-.44.5.5,0,0,1,.44-.55l51.8-5.84a.51.51,0,0,1,.56.44.5.5,0,0,1-.44.55l-51.81,5.84Z" transform="translate(0 0)"/><path class="cls-6" d="M67.18,175a.5.5,0,0,1-.06-1l51.81-5.84a.5.5,0,0,1,.55.45.49.49,0,0,1-.44.55L67.24,175Z" transform="translate(0 0)"/><path class="cls-6" d="M66.18,166.06a.5.5,0,0,1-.06-1l22.39-2.52a.5.5,0,0,1,.55.45.49.49,0,0,1-.44.55l-22.39,2.52Z" transform="translate(0 0)"/><path class="cls-6" d="M94.43,162.87a.5.5,0,0,1-.49-.44.5.5,0,0,1,.44-.55l23.56-2.67a.52.52,0,0,1,.55.45.5.5,0,0,1-.44.55l-23.56,2.65Z" transform="translate(0 0)"/><path class="cls-6" d="M68.31,185a.5.5,0,0,1-.07-1h0l22.39-2.53a.5.5,0,0,1,.55.45.49.49,0,0,1-.44.55L68.37,185Z" transform="translate(0 0)"/></svg>