<svg width="33" height="33" viewBox="0 0 33 33" fill="none" xmlns="http://www.w3.org/2000/svg">
<path fill-rule="evenodd" clip-rule="evenodd" d="M21.5446 3.48091C22.0334 3.43647 22.5167 3.61143 22.8638 3.9585L27.6153 8.71008C27.9624 9.05715 28.1374 9.54045 28.0929 10.0292L27.5351 16.1652C27.5015 16.5347 27.3447 16.8817 27.0906 17.1508L27.0911 17.1513L14.8123 29.4301C13.6283 30.6141 11.7086 30.6141 10.5245 29.4301L2.14377 21.0493C0.959708 19.8653 0.959707 17.9456 2.14377 16.7615L14.4225 4.48273L14.423 4.4832C14.6922 4.22911 15.0392 4.07232 15.4086 4.03873L21.5446 3.48091ZM22.8033 8.96545C23.2339 9.39604 23.9319 9.39604 24.3625 8.96545C24.7931 8.53487 24.7931 7.83683 24.3625 7.40624C23.9319 6.97566 23.2339 6.97566 22.8033 7.40624C22.3727 7.83683 22.3727 8.53487 22.8033 8.96545Z" fill="#0E8397"/>
<path fill-rule="evenodd" clip-rule="evenodd" d="M19.8124 10.6763C19.7925 10.676 19.5838 10.8681 19.3488 11.1031C18.9268 11.5252 18.9206 11.5299 18.8487 11.4823C18.8086 11.4558 18.6541 11.3503 18.5053 11.2479C16.5321 9.89014 14.1507 10.0386 12.7362 11.6076C12.0765 12.3394 11.8041 13.0282 11.829 13.9019C11.8531 14.7471 12.1575 15.6378 12.8422 16.867L13.0983 17.3267L11.6988 18.7401C10.374 20.0782 10.2975 20.1503 10.2652 20.0931C10.2465 20.0599 10.1601 19.9102 10.0734 19.7605C9.6205 18.9792 9.26774 17.8383 9.1848 16.8867C9.16822 16.6963 9.14809 16.5351 9.1401 16.5283C9.11709 16.5089 6.87142 16.7296 6.82752 16.7555C6.78116 16.783 6.81542 17.2627 6.89847 17.7487C7.13384 19.1262 7.76424 20.5803 8.56008 21.5816L8.69647 21.7531L8.21614 22.248L7.73584 22.7429L8.40769 23.4148L9.07954 24.0866L9.5498 23.631L10.0201 23.1754L10.2182 23.3389C10.5428 23.6067 11.1699 24.0167 11.5126 24.1852C11.8978 24.3745 12.433 24.5629 12.8113 24.6422C13.2058 24.7249 14.0465 24.7232 14.4253 24.6389C15.9379 24.3024 17.2048 23.0472 17.4481 21.6443C17.6194 20.6564 17.1961 19.2858 16.2242 17.681L15.9556 17.2375L17.3093 15.8838L18.663 14.5301L18.8048 14.7779C19.1929 15.4556 19.4877 16.3394 19.6183 17.2162C19.6585 17.486 19.7102 17.7061 19.7332 17.7052C19.7562 17.7042 20.2609 17.6353 20.8546 17.5519C21.4484 17.4686 21.9586 17.3978 21.9883 17.3946C22.025 17.3908 22.028 17.2684 21.9977 17.0153C21.835 15.6547 21.27 14.2365 20.474 13.1906L20.2713 12.9242L20.7132 12.4676L21.1551 12.0111L20.5019 11.3439C20.1426 10.9769 19.8324 10.6765 19.8124 10.6763ZM16.129 14.3229L14.9354 15.5165L14.8919 15.4391C14.7658 15.2151 14.5323 14.4605 14.5169 14.2276C14.4759 13.6042 14.8715 13.0441 15.5006 12.8351C15.7709 12.7452 16.2783 12.7361 16.5836 12.8156C16.7891 12.8691 17.2341 13.052 17.3011 13.1105C17.3129 13.1208 16.7855 13.6664 16.129 14.3229ZM14.3679 19.4784C14.9111 20.5774 14.9313 21.2052 14.4409 21.7516C13.9577 22.2902 13.2721 22.4247 12.4933 22.1338C12.2431 22.0403 11.7677 21.7717 11.6574 21.6614L11.5945 21.5985L12.865 20.3281C13.6037 19.5894 14.1455 19.0678 14.1596 19.0819C14.173 19.0953 14.2667 19.2737 14.3679 19.4784Z" fill="#EDEDED"/>
<path fill-rule="evenodd" clip-rule="evenodd" d="M18.6543 6.3607C18.9685 5.98365 19.434 5.76562 19.9248 5.76562H26.6446C27.1354 5.76562 27.6009 5.98365 27.9151 6.3607L31.8594 11.0939C32.0969 11.3789 32.2314 11.7352 32.2421 12.1052H32.2427V29.47C32.2427 31.1445 30.8853 32.5019 29.2108 32.5019H17.3586C15.6841 32.5019 14.3267 31.1445 14.3267 29.47V12.1052H14.3273C14.338 11.7352 14.4725 11.3789 14.71 11.0939L18.6543 6.3607ZM23.4225 9.34884C24.0314 9.34884 24.525 8.85525 24.525 8.24631C24.525 7.63738 24.0314 7.14378 23.4225 7.14378C22.8136 7.14378 22.32 7.63738 22.32 8.24631C22.32 8.85525 22.8136 9.34884 23.4225 9.34884Z" fill="white"/>
<path fill-rule="evenodd" clip-rule="evenodd" d="M22.5172 12.6738C22.5029 12.6877 22.4912 12.9711 22.4912 13.3035C22.4912 13.9003 22.4901 13.908 22.4057 13.9252C22.3586 13.9348 22.1748 13.9695 21.9971 14.0024C19.6418 14.4375 18.0629 16.2263 18.1721 18.336C18.223 19.3199 18.5175 19.9996 19.1529 20.5998C19.7676 21.1804 20.6127 21.595 21.966 21.98L22.4722 22.124L22.482 24.113C22.4913 25.996 22.4883 26.101 22.425 26.0834C22.3882 26.0732 22.2214 26.0284 22.0541 25.9839C21.1815 25.7517 20.1253 25.1943 19.3938 24.5801C19.2474 24.4572 19.1192 24.3574 19.1087 24.3583C19.0787 24.3608 17.6468 26.1048 17.6341 26.1542C17.6208 26.2064 17.9843 26.5214 18.3866 26.8063C19.5271 27.6139 21.001 28.1964 22.2718 28.3417L22.4896 28.3665L22.4999 29.0561L22.5102 29.7457H23.4603H24.4105L24.4208 29.091L24.4312 28.4363L24.6869 28.4118C25.1058 28.3716 25.8391 28.2181 26.2006 28.0949C26.6068 27.9565 27.1185 27.7112 27.442 27.4998C27.7795 27.2793 28.3727 26.6836 28.581 26.3561C29.4126 25.0486 29.4209 23.2653 28.6009 22.1012C28.0235 21.2816 26.7551 20.6117 24.933 20.1642L24.4295 20.0405V18.1261V16.2117L24.705 16.2866C25.4586 16.4914 26.292 16.9079 27.0044 17.4355C27.2236 17.5979 27.4157 17.7169 27.4313 17.7C27.447 17.6831 27.755 17.2775 28.1159 16.7987C28.4769 16.3199 28.7876 15.9091 28.8064 15.8858C28.8296 15.8572 28.7452 15.7685 28.5448 15.6109C27.4676 14.7639 26.0653 14.1606 24.7629 13.9839L24.4312 13.9389L24.4208 13.3035L24.4105 12.6682L23.4768 12.6583C22.9633 12.6529 22.5315 12.6599 22.5172 12.6738ZM22.4912 17.8569V19.545L22.4057 19.521C22.1582 19.4518 21.4594 19.0833 21.2839 18.9295C20.814 18.5177 20.6977 17.8418 20.9948 17.2492C21.1224 16.9946 21.4747 16.6294 21.7469 16.4697C21.9299 16.3622 22.374 16.1769 22.4627 16.1709C22.4783 16.1698 22.4912 16.9285 22.4912 17.8569ZM24.8913 22.7477C26.0526 23.1407 26.5107 23.5704 26.5504 24.3035C26.5895 25.026 26.1999 25.6059 25.4434 25.9509C25.2005 26.0618 24.6743 26.2079 24.5184 26.2079H24.4295V24.4113C24.4295 23.3666 24.4438 22.6146 24.4638 22.6146C24.4827 22.6146 24.6751 22.6745 24.8913 22.7477Z" fill="#5FCF80"/>
</svg>
