<?xml version="1.0" encoding="utf-8"?>
<!-- Generator: Adobe Illustrator 25.2.3, SVG Export Plug-In . SVG Version: 6.00 Build 0)  -->
<svg version="1.1" id="OBJECTS" xmlns="http://www.w3.org/2000/svg" xmlns:xlink="http://www.w3.org/1999/xlink" x="0px" y="0px"
	 viewBox="0 0 683.6 429.1" style="enable-background:new 0 0 683.6 429.1;" xml:space="preserve">
<style type="text/css">
	.st0{fill:#B83D5D;}
	.st1{fill:#E3B5AA;}
	.st2{fill:#D78F97;}
	.st3{fill:none;stroke:#C87E84;stroke-width:0.5;stroke-miterlimit:10;}
	.st4{fill:#C87E84;}
	.st5{fill:none;stroke:#B83D5D;stroke-miterlimit:10;}
	.st6{fill:#36364F;}
	.st7{fill:none;stroke:#FFFFFF;stroke-width:3.9999;stroke-miterlimit:9.9999;}
	.st8{fill:none;stroke:#FFFFFF;stroke-width:3.9999;stroke-miterlimit:9.9998;}
	.st9{fill:#9A304F;}
	.st10{fill:#C33E5D;}
	.st11{fill:#2568BD;}
	.st12{opacity:0.5;fill:#2568BD;enable-background:new    ;}
	.st13{fill:none;stroke:#FFFFFF;stroke-width:4;stroke-miterlimit:10;}
	.st14{fill:none;stroke:#DC831E;stroke-width:3;stroke-miterlimit:10;}
	.st15{fill:none;stroke:#2568BD;stroke-width:3;stroke-miterlimit:10;}
	.st16{fill:#FFFFFF;}
	.st17{font-family:'Arial-BoldMT';}
	.st18{font-size:44.39px;}
	.st19{fill:#80ABBD;}
	.st20{fill:#4B7195;}
	.st21{opacity:0.4;fill:#5A93A0;enable-background:new    ;}
	.st22{opacity:0.4;fill:#A3D5E6;enable-background:new    ;}
	.st23{display:none;fill:#C33E5D;}
	.st24{fill:#47547C;}
	.st25{opacity:0.5;fill:#2B2B3F;enable-background:new    ;}
	.st26{fill:#0C8068;}
	.st27{fill:none;stroke:#0A6D53;stroke-miterlimit:10;}
	.st28{opacity:0.5;fill:#0A6D53;enable-background:new    ;}
	.st29{fill:#159A7A;}
	.st30{fill:none;stroke:#0C8068;stroke-miterlimit:10;}
	.st31{opacity:0.5;fill:#0C8068;enable-background:new    ;}
</style>
<path class="st0" d="M431.8,149.7c-1.5,32.7-33.6,57.7-57.6,59.2c-31.8,2-54.5-26.7-57.7-59.2c-2.8-28.2,7.2-27.8,14.7-39.5
	c9-14.2,25.9-22.1,42.9-22.1C406,88,433.9,105.7,431.8,149.7z"/>
<rect x="351.8" y="205.9" class="st1" width="44.7" height="55.9"/>
<path class="st1" d="M424.4,173.2c8-12.1,18.1-12.6,22.4,1.7s-9.7,26.1-21.1,21.7S424.4,173.2,424.4,173.2z"/>
<path class="st2" d="M433.8,173.5c5.3-1,8.1,14.9-3.6,15.5l2.4-5.5l-2.3-4.6L433.8,173.5z"/>
<path class="st3" d="M428.4,191.2c6.8-7.3,1.9-12.4,1.9-12.4s6.5-13.3,9.1-3.1"/>
<path class="st1" d="M323.6,173.2c-8-12.1-18.1-12.6-22.4,1.7s9.7,26.1,21.1,21.7S323.6,173.2,323.6,173.2z"/>
<path class="st2" d="M314.2,173.5c-5.3-1-8.1,14.9,3.6,15.5l-2.4-5.5l2.3-4.6L314.2,173.5z"/>
<path class="st3" d="M319.6,191.2c-6.8-7.3-1.9-12.4-1.9-12.4s-6.5-13.3-9.1-3.1"/>
<path class="st4" d="M396.5,207.1v20.8c-16.1,21.8-44.7,14.7-44.7,14.7l0.5-35.5H396.5z"/>
<path class="st1" d="M358.5,114.7h31.4c18,0,32.6,14.6,32.6,32.6v35.3c0,26.7-21.6,48.3-48.3,48.3l0,0c-26.7,0-48.3-21.6-48.3-48.3
	v-35.3C325.9,129.3,340.5,114.7,358.5,114.7L358.5,114.7z"/>
<path class="st5" d="M381.6,188.9c-0.3,4.1-3.9,7.2-8,6.9c-3.7-0.3-6.6-3.2-6.9-6.9"/>
<path class="st0" d="M331,116.9c0,0-8.5-14,2.1-26.4C333.1,90.5,340.8,104.6,331,116.9z"/>
<path class="st0" d="M335.3,113.5c0,0-11.8,11.4-26.2,3.8C309.1,117.3,321.1,106.8,335.3,113.5z"/>
<path class="st6" d="M355,171.6c0,4-1.7,7.2-3.8,7.2s-3.8-3.2-3.8-7.2s1.7-7.2,3.8-7.2S355,167.6,355,171.6z"/>
<ellipse class="st7" cx="349.3" cy="171.1" rx="19.4" ry="19.4"/>
<path class="st6" d="M401,171.6c0,4-1.7,7.2-3.8,7.2s-3.8-3.2-3.8-7.2s1.7-7.2,3.8-7.2S401,167.6,401,171.6z"/>
<ellipse class="st8" cx="399.1" cy="171.1" rx="19.4" ry="19.4"/>
<path class="st0" d="M331.9,128.5c0,0,30.7-16.2,51.1-4.4s22.7,35.9,42.8,29.7c0,0,15.3-6.7-1.5-30.2s-28.3-28-50.2-22.9
	S337.9,109.7,331.9,128.5z"/>
<path class="st9" d="M330.7,128.3c0,0,10.1-13.4,24.3-17s29.9,13.9,29.9,13.9S348.5,120,330.7,128.3z"/>
<path class="st0" d="M326,145.1c0,0,3.4,24.9,0,40.1C326,185.3,321,146.6,326,145.1z"/>
<path class="st0" d="M422.1,145.1c0,0-3.4,24.9,0,40.1C422.1,185.3,427.1,146.6,422.1,145.1z"/>
<path class="st0" d="M359.9,143.2c-5.3-2.5-14.6-5.3-23.3,0.9c-0.9,0.6-1.2,1.9-0.5,2.8c0.3,0.5,0.8,0.8,1.4,0.9
	c3.7,0.6,7.5,1,11.3,0.9c3.6-0.1,7.3-0.7,10.8-1.7c1.1-0.2,1.8-1.3,1.5-2.4C360.9,144,360.5,143.5,359.9,143.2z"/>
<path class="st0" d="M410.8,143.2c-5.3-2.5-14.6-5.3-23.3,0.9c-0.9,0.6-1.2,1.9-0.5,2.8c0.3,0.5,0.8,0.8,1.4,0.9
	c3.7,0.6,7.5,1,11.3,0.9c3.6-0.1,7.3-0.7,10.8-1.7c1.1-0.2,1.8-1.3,1.5-2.4C411.8,144,411.4,143.5,410.8,143.2z"/>
<path class="st10" d="M390.5,206.4c-0.5,1-1.2,1.9-1.9,2.8c-2.6,3.1-7,6.1-14.5,6.2l0,0h-0.5l0,0c-7-0.1-11.4-2.8-14-5.7
	c-0.9-1-1.7-2.1-2.3-3.3c-0.7-1.3-1.3-2.8-1.6-4.3l36.5,0.1C391.8,203.6,391.3,205.1,390.5,206.4z"/>
<path class="st6" d="M390.5,206.4c-0.5,1-1.2,1.9-1.9,2.8c-9.3-4.2-19.9-4-29.1,0.5c-0.9-1-1.7-2.1-2.3-3.3
	c-0.7-1.3-1.3-2.8-1.6-4.3l36.5,0.1C391.8,203.6,391.3,205.1,390.5,206.4z"/>
<path class="st11" d="M529.2,400.8l-327,0.3c0,0,6.1-12.8,14.9-29.7l2-3.8c12-22.9,28.1-51.8,40.7-67.4c14.5-18,48.8-30.9,72-37.9
	c13.6-4.1,23.4-6.2,23.4-6.2h37.6c0,0,8.8,1.9,21.3,5.6c23.2,6.9,58,21,74.1,38.5c3.8,4.2,7.1,8.8,10,13.7
	C518.1,346.8,529.2,400.8,529.2,400.8z"/>
<path class="st12" d="M529.2,400.8l-327,0.3c0,0,6.1-12.8,14.9-29.7c163.2,48,249.1-30.6,268.8-51.9c3.2-3.4,7.6-5.5,12.3-5.6h0.1
	C518.1,346.8,529.2,400.8,529.2,400.8z"/>
<line class="st13" x1="369" y1="174.4" x2="379.3" y2="174.4"/>
<path class="st1" d="M414.1,261.6c-40.5,44.5-82.2,0.6-82.2,0.6c13.6-4.1,23.4-6.2,23.4-6.2h37.5C392.8,256,401.6,257.9,414.1,261.6
	z"/>
<line class="st14" x1="284.8" y1="350.4" x2="284.8" y2="401.1"/>
<line class="st14" x1="284.8" y1="382.7" x2="271.2" y2="365.4"/>
<line class="st15" x1="462.6" y1="350.4" x2="462.6" y2="401.1"/>
<line class="st15" x1="462.6" y1="382.7" x2="474.7" y2="367.3"/>
<path class="st15" d="M329.9,281.6c0,0,50.2,34.3,84.2-1.7"/>
<text transform="matrix(1 0 0 1 417.5 352.03)" class="st16 st17 st18">x</text>
<path class="st0" d="M330.7,107.5c11.3-47.4,124.1-42.1,103.1,50.1c-6.3,27.6-52.3-62.8-92-40.6c-3,1.7-6.7,1.2-9.1-1.1l0,0
	C330.4,113.7,330,110.5,330.7,107.5z"/>
<path class="st19" d="M392.7,400.8h-0.1c-0.3,0-0.6,0-0.8,0h-219c-5.1,0-9.2-4.1-9.2-9.2v-0.1l-34.1-96.4c-2.1-5.9,1-12.4,6.9-14.4
	c1.2-0.4,2.5-0.7,3.8-0.7h142.1c4.8,0,9.1,3,10.7,7.5l36.8,103.8l0.1,0.2H392C397.7,391.6,398.3,400.2,392.7,400.8z"/>
<ellipse transform="matrix(0.9456 -0.3252 0.3252 0.9456 -100.1236 88.2028)" class="st16" cx="213.8" cy="343.6" rx="16.5" ry="20"/>
<path class="st20" d="M392,391.6h-62.2v-0.2L293,287.6c-1.6-4.5-5.9-7.5-10.7-7.5h-4.8c0,0,10.6,0.7,13.3,10.2s39,110.3,39,110.3
	l2.7,0.2h59.3c0.3,0,0.6,0,0.8,0C398.3,400.3,397.8,391.6,392,391.6z"/>
<path class="st21" d="M392.7,400.8h-0.1c-0.3,0-0.6,0-0.8,0h-219c-2.8,0-5.4-1.3-7.2-3.5C295,408.4,282.3,280,282.3,280
	c4.8,0,9.1,3,10.7,7.5l36.8,103.8l0.1,0.2H391C391.7,394.7,392.2,397.7,392.7,400.8z"/>
<path class="st20" d="M132.3,337.2v3.2c-5.8,0.7-7.2,5.6-7.2,11.6v2c0,6,1.4,10.9,7.2,11.6v3.2H20.9c-4.6,0-8.3-3.7-8.3-8.3v-15
	c0-4.6,3.7-8.3,8.3-8.3l0,0L132.3,337.2z"/>
<path class="st16" d="M130.6,362.3c0.5,1.2-0.1,2.6-1.3,3.1c-0.3,0.1-0.6,0.2-0.9,0.2L22,365.7v-25.3l106.4,0.1
	c0.6,0,1.2,0.2,1.6,0.6c0.8,0.6,1.1,1.7,0.7,2.7c-0.9,2.1-0.9,5-0.9,8.3v2C129.8,357.3,129.7,360.2,130.6,362.3z"/>
<path class="st22" d="M129.9,341.1c-2,0.1-96.1,5-102.6,14.1c-1.8,2.5-3.7,3.9-5.5,4.1v-18.9l106.4,0.1
	C128.9,340.5,129.5,340.7,129.9,341.1z"/>
<path class="st20" d="M18,337.2h9.4l0,0v31.6l0,0H18c-2.9,0-5.3-2.4-5.3-5.3v-20.9C12.7,339.6,15.1,337.2,18,337.2z"/>
<path class="st22" d="M130.6,362.3c0.5,1.2-0.1,2.6-1.3,3.1c-0.3,0.1-0.6,0.2-0.9,0.2h-21.3c16.9-1.9,15.8-15.8,15.8-15.8
	c0.2-0.7-13.3-8.8-13.1-9.4h18.5c0.6,0,1.2,0.2,1.6,0.6c0.8,0.6,1.1,1.7,0.7,2.7c-0.9,2.1-0.9,5-0.9,8.3v2
	C129.8,357.3,129.7,360.2,130.6,362.3z"/>
<polygon class="st11" points="96.8,361 91.4,355.5 85.9,361 85.9,346 96.8,346 "/>
<path class="st10" d="M144.2,368.7v3.2c-5.8,0.7-7.2,5.6-7.2,11.6v2c0,6,1.4,10.9,7.2,11.6v3.2H32.8c-4.6,0-8.3-3.7-8.3-8.3v-15
	c0-4.6,3.7-8.3,8.3-8.3L144.2,368.7z"/>
<path class="st16" d="M142.5,393.8c0.5,1.2-0.1,2.6-1.3,3.1c-0.3,0.1-0.6,0.2-0.9,0.2l-106.5,0.1v-25.3l106.4,0.1
	c0.6,0,1.2,0.2,1.6,0.6c0.8,0.7,1.1,1.8,0.7,2.7c-0.9,2.1-0.9,5-0.9,8.3v2C141.6,388.8,141.6,391.7,142.5,393.8z"/>
<path class="st22" d="M141.8,372.5c-2.1,0.1-96.1,5-102.6,14.1c-1.8,2.5-3.7,3.9-5.5,4.1v-18.9l106.5,0.1
	C140.8,372,141.4,372.2,141.8,372.5z"/>
<path class="st23" d="M29.9,368.7h9.4l0,0v31.6l0,0h-9.4c-2.9,0-5.3-2.4-5.4-5.3v-20.9C24.6,371.1,27,368.7,29.9,368.7L29.9,368.7z"
	/>
<path class="st22" d="M142.5,393.8c0.5,1.2-0.1,2.6-1.3,3.1c-0.3,0.1-0.6,0.2-0.9,0.2H119c16.9-1.9,15.8-15.8,15.8-15.8
	c0.2-0.7-13.3-8.8-13.1-9.4h18.5c0.6,0,1.2,0.2,1.6,0.6c0.8,0.7,1.1,1.8,0.7,2.7c-0.9,2.1-0.9,5-0.9,8.3v2
	C141.6,388.8,141.6,391.7,142.5,393.8z"/>
<polygon class="st11" points="130.5,394.4 124.7,388.7 119,394.4 119,378.7 130.5,378.7 "/>
<path class="st24" d="M683.6,414v2.3c0,7.1-5.7,12.8-12.8,12.8h-654c-5.8,0-10.9-3.9-12.4-9.5l0,0c-0.3-1-0.4-2.1-0.4-3.2v-2.3
	c0-7.1,5.7-12.8,12.7-12.8l0,0h654C677.8,401.2,683.6,406.9,683.6,414L683.6,414z"/>
<path class="st25" d="M683.6,414v2.3c0,7.1-5.7,12.8-12.8,12.8h-654c-5.8,0-10.9-3.9-12.4-9.5l0,0c-0.3-2-0.4-3.2-0.4-3.2
	c366.8,12.8,666.8-15.1,666.8-15.1C677.9,401.3,683.6,407,683.6,414z"/>
<path class="st26" d="M589.6,361.1c-5.8,0.5-11.6-0.8-16.5-3.9c-18.4-11.4-22.2-43.4-22.5-45.8c0.2,0.7,2,4.7,21.1,17.5
	c1.6,1.1,3,2.2,4.4,3.3h0.1C592.7,345.9,589.6,361.1,589.6,361.1z"/>
<path class="st27" d="M550.6,311.2c0,0,17.2,42.1,36.2,46.5"/>
<path class="st28" d="M589.6,361.1c-5.8,0.5-11.6-0.8-16.5-3.9c3.7-8.6,3-25.1,3-25.1h0.1C592.7,345.9,589.6,361.1,589.6,361.1z"/>
<path class="st26" d="M638.3,313.7c-0.1,0.4-0.3,2-0.8,4.3l0,0c-2.7,12.1-12.5,44.8-38.8,41.5c-0.2-2.3-0.1-4.7,0.5-7
	c1.3-6.2,5.5-15.3,18.2-23C636.2,318,638.1,314.4,638.3,313.7z"/>
<path class="st27" d="M637.5,316.3c0,0-13.5,35-36.9,42.1"/>
<path class="st28" d="M637.5,318L637.5,318c-2.7,12.1-12.5,44.8-38.8,41.5c-0.2-2.3-0.1-4.7,0.4-7l0,0
	C621,353.7,637.5,318,637.5,318z"/>
<path class="st29" d="M597.2,360.7c-0.7,1.1-10.3-2.9-14.6-14.4l0,0c-2.6-6.9-3.3-16.6,1-29.5c11.3-33.9,6.6-40.3,6.5-40.5
	c7,3.9,12.7,9.7,16.4,16.8l0,0C613.5,306.1,616.2,327.7,597.2,360.7z"/>
<path class="st30" d="M590.1,276.2c0,0,14.7,18.6,9.1,53.9s-2,30.6-2,30.6"/>
<path class="st31" d="M597.2,360.7c-0.7,1.1-10.3-2.9-14.6-14.4c24.2,6.9,23.8-53.2,23.8-53.2l0,0
	C613.5,306.1,616.2,327.7,597.2,360.7z"/>
<path class="st26" d="M550.6,311.2v0.1C550.5,311.3,550.5,311.2,550.6,311.2z"/>
<path class="st11" d="M615.9,360.2v27.1c0,7.9-6.4,14.4-14.4,14.4h-12.7c-5,0-9.7-2.6-12.3-6.9l0,0c-1.4-2.3-2.1-4.8-2.1-7.5v-27.1
	H615.9z"/>
<path class="st11" d="M572.9,356.7h44.5c0.6,0,1.1,0.5,1.1,1.1v1.4c0,0.6-0.5,1.1-1.1,1.1h-44.5c-0.6,0-1.1-0.5-1.1-1.1v-1.4
	C571.8,357.1,572.3,356.7,572.9,356.7z"/>
<path class="st11" d="M615.9,360.2v27.1c0,7.9-6.4,14.4-14.4,14.4h-12.7c-5,0-9.7-2.6-12.3-6.9c30.4,9.5,37-12.8,35.8-21.7
	c-1.2-8.9-12.1-12.9-12.1-12.9H615.9z"/>
</svg>
