<svg width="33" height="33" viewBox="0 0 33 33" fill="none" xmlns="http://www.w3.org/2000/svg">
<path d="M0.958965 10.8896C0.429343 10.8896 0 11.3136 0 11.8366V31.7219C0 32.2449 0.429344 32.6688 0.958965 32.6688H15.6656C15.6656 32.6688 15.9919 31.3589 16.3073 31.3589C16.6227 31.3589 16.949 32.6688 16.949 32.6688H31.7098C32.2394 32.6688 32.6688 32.2449 32.6688 31.7219V11.8366C32.6688 11.3136 32.2394 10.8896 31.7098 10.8896H0.958965Z" fill="#0E8397"/>
<path d="M1.81494 10.5165C1.83567 10.5087 1.8566 10.5008 1.87773 10.4929V10.4537H1.98407C4.92899 9.38079 11.5149 7.97855 15.8052 10.4537H16.157C19.1533 9.39928 25.7358 8.10804 29.9464 10.4537V30.8539H1.87773V10.5165H1.81494Z" fill="white"/>
<path d="M2.11914 10.5165C2.18193 10.4929 2.1608 10.5008 2.18193 10.4929V10.4537C5.12686 9.38079 11.8191 7.97855 16.1094 10.4537H16.4612C19.4575 9.39928 26.04 8.10804 30.2506 10.4537V28.8452C30.2506 28.8452 25.9586 28.7164 23.2491 29.0963C20.4573 29.4878 16.2476 30.8539 16.2476 30.8539C16.2476 30.8539 11.5947 29.4712 8.52406 29.0963C6.06364 28.796 2.28829 28.5 2.28829 28.5L2.18193 10.5165H2.11914Z" fill="#CEDCE8"/>
<path d="M5.44482 21.8395C11.3207 22.4577 15.089 28.0852 16.2705 30.8538L16.3344 10.0566C14.4694 5.08584 8.29762 2.49101 5.44482 1.81494V21.8395Z" fill="#F0F5FA"/>
<path d="M8.16699 19.9736C13.9086 21.6328 15.106 28.1098 16.2421 30.8538L16.3342 10.6249C15.5052 1.94631 11.6467 0.670042 8.90388 0L8.16699 19.9736Z" fill="#CEDCE8"/>
<path d="M28.1313 25.9786C22.5224 26.6027 17.6278 27.8736 16.4999 30.6687L16.3343 9.85795C18.1145 4.83973 25.5707 5.47024 28.1313 5.47025V25.9786Z" fill="#F0F5FA"/>
<rect x="22.8687" y="19.8196" width="1.80877" height="1.80877" transform="rotate(-45.778 22.8687 19.8196)" fill="#97C5D0"/>
<rect x="23.8208" y="21.4346" width="2.79537" height="1.31547" transform="rotate(-45.778 23.8208 21.4346)" fill="#DFFDFF"/>
<path d="M24.7632 22.3521L26.7128 20.3488L31.721 25.2228C32.2742 25.7611 32.2862 26.646 31.7478 27.1992C31.2095 27.7524 30.3246 27.7644 29.7714 27.2261L24.7632 22.3521Z" fill="#446875"/>
<path fill-rule="evenodd" clip-rule="evenodd" d="M24.2091 19.3743C26.7816 16.731 26.7465 12.5246 24.1307 9.97889C21.515 7.43323 17.3091 7.51237 14.7367 10.1557C12.1642 12.7989 12.1993 17.0054 14.815 19.5511C17.4308 22.0968 21.6367 22.0176 24.2091 19.3743ZM23.1112 18.306C25.091 16.2717 25.0669 13.0372 23.0574 11.0816C21.048 9.12601 17.8141 9.18977 15.8343 11.224C13.8546 13.2583 13.8786 16.4928 15.8881 18.4484C17.8976 20.404 21.1315 20.3402 23.1112 18.306Z" fill="#2D4853"/>
</svg>
