<svg xmlns="http://www.w3.org/2000/svg" xmlns:xlink="http://www.w3.org/1999/xlink" viewBox="0 0 249.29 179.72"><defs><style>.cls-1{isolation:isolate;}.cls-2{mix-blend-mode:multiply;fill:url(#radial-gradient);}.cls-3{fill:#fff;}.cls-4{fill:#001a4e;}.cls-5{font-size:14.87px;fill:#2a8aff;font-family:KhmerOSContent-Bold, Khmer OS Content;font-weight:700;}</style><radialGradient id="radial-gradient" cx="144.77" cy="156.58" r="85.68" gradientTransform="translate(153.12 -56.51) rotate(45)" gradientUnits="userSpaceOnUse"><stop offset="0.68" stop-color="#acc2d4"/><stop offset="0.72" stop-color="#bbcddc"/><stop offset="0.84" stop-color="#e0e8ef"/><stop offset="0.94" stop-color="#f7f9fb"/><stop offset="1" stop-color="#fff"/></radialGradient></defs><g class="cls-1"><g id="Layer_1" data-name="Layer 1"><circle class="cls-2" cx="144.77" cy="156.58" r="85.68" transform="translate(-87.94 85.69) rotate(-45)"/><circle class="cls-3" cx="126.14" cy="80.91" r="71.09"/><path class="cls-4" d="M146,233.76A88.82,88.82,0,0,1,62.07,174L65,173a85.73,85.73,0,0,0,166.76-28v-1.53h26.21v3.06H234.77A88.88,88.88,0,0,1,146,233.76Z" transform="translate(-19.62 -62.54)"/><polygon class="cls-4" points="236.07 90.07 249.29 82.44 236.07 74.81 236.07 90.07"/><path class="cls-4" d="M63,65.6a52.63,52.63,0,0,1,15.37,2.13,36.26,36.26,0,0,1,11.95,6.06,27.68,27.68,0,0,1,7.74,9.55,28.15,28.15,0,0,1,2.75,12.48,20.62,20.62,0,0,1-1.89,9,29.9,29.9,0,0,1-4.7,7,42.47,42.47,0,0,1-6.06,5.59c-2.15,1.63-4.18,3.14-6,4.48a39.41,39.41,0,0,0-4.62,3.88,5.18,5.18,0,0,0-1.79,3.61v6.5H50.13V125.19A10.06,10.06,0,0,1,51.56,120a25,25,0,0,1,3.59-4.63c1.43-1.48,3-3,4.6-4.39a62,62,0,0,0,4.56-4.45,25.29,25.29,0,0,0,3.51-4.79,10.78,10.78,0,0,0,1.37-5.39,11.55,11.55,0,0,0-.63-3.79,9.13,9.13,0,0,0-4.81-5.36,9,9,0,0,0-4-.84,9.5,9.5,0,0,0-4.75,1,7.81,7.81,0,0,0-2.8,2.7A10.76,10.76,0,0,0,50.86,94a28.91,28.91,0,0,0-.35,4.48v2a12.72,12.72,0,0,0,.14,1.93l0,.3H23.14l0-.24c-.09-1-.19-1.87-.28-2.76a24.68,24.68,0,0,1-.15-2.78,27.78,27.78,0,0,1,3-13A29.69,29.69,0,0,1,34.14,74a39.52,39.52,0,0,1,12.77-6.24A57.49,57.49,0,0,1,63,65.6m0-3.06a60.24,60.24,0,0,0-17,2.29,42.19,42.19,0,0,0-13.76,6.74A32.68,32.68,0,0,0,23,82.45a30.7,30.7,0,0,0-3.39,14.44,28.05,28.05,0,0,0,.17,3.11c.09.88.18,1.79.28,2.74l.3,3H54.22l-.54-3.79a9.64,9.64,0,0,1-.11-1.5v-2a25.08,25.08,0,0,1,.31-4,7.59,7.59,0,0,1,1-2.75,4.74,4.74,0,0,1,1.71-1.64,6.76,6.76,0,0,1,3.22-.62,6,6,0,0,1,2.64.53,6.08,6.08,0,0,1,2,1.48,6,6,0,0,1,1.23,2.13,8.41,8.41,0,0,1,.47,2.78,7.79,7.79,0,0,1-1,3.9,21.86,21.86,0,0,1-3.09,4.2,56.21,56.21,0,0,1-4.34,4.24c-1.67,1.48-3.28,3-4.77,4.55a27.69,27.69,0,0,0-4,5.21,13,13,0,0,0-1.86,6.7V139H78.79v-9.56a2.56,2.56,0,0,1,.89-1.45A38.11,38.11,0,0,1,84,124.4q2.8-2.06,6.06-4.51a46.21,46.21,0,0,0,6.49-6,33.33,33.33,0,0,0,5.18-7.77,23.65,23.65,0,0,0,2.19-10.32A31.18,31.18,0,0,0,100.81,82a30.67,30.67,0,0,0-8.59-10.6,39.44,39.44,0,0,0-13-6.59A55.74,55.74,0,0,0,63,62.54Z" transform="translate(-19.62 -62.54)"/><path class="cls-4" d="M76.08,147.57v24.19H50.21V147.57H76.08m3.06-3.06h-32v30.31h32V144.51Z" transform="translate(-19.62 -62.54)"/><text class="cls-5" transform="translate(108.46 73.38) scale(0.79 1)">សំណួរ<tspan x="-27.89" y="17.85">ដែលពេញនិយម</tspan></text></g></g></svg>