<svg id="objects" xmlns="http://www.w3.org/2000/svg" viewBox="0 0 619.76 322.05"><defs><style>.cls-1{fill:#ff5b41;}.cls-2{fill:#ffd66d;}.cls-3{fill:#2a566d;}.cls-4{fill:#8aa3bd;}.cls-5{fill:#d1f4f9;}.cls-6{fill:#163944;}.cls-7{opacity:0.1;}</style></defs><polygon class="cls-1" points="0 322.05 130.2 189.69 131.25 188.62 132.32 189.5 219.31 274.91 215.79 274.91 288.98 200.69 291.3 198.42 293.7 201.03 357.34 263.91 351.6 263.91 476.54 136.72 484.31 144.4 357.34 269.28 354.43 272.12 351.6 269.4 288.98 205.91 293.7 205.91 219.31 278.94 217.52 280.62 215.79 278.87 130.2 191.91 132.32 191.91 0 322.05"/><path class="cls-2" d="M580.77,316.1l-5.89-16L558.62,294s-18.48,1.12-25.91,25.83A54.17,54.17,0,0,1,541,314.2s-10.32,16.19-8.23,28c11.5,1.75,27.86-8.4,27.86-8.4-1.63,3.41-5.76,8.07-5.76,8.07C579.54,334.46,580.77,316.1,580.77,316.1Zm-19.59,11.65a28.8,28.8,0,0,0,3.74-5.18s-10.65,6.48-18,5.45c-1.38-7.68,5.29-18.14,5.29-18.14a36,36,0,0,0-5.34,3.58c4.8-16,16.76-16.68,16.76-16.68l10.53,4L578,311.1S577.15,323,561.18,327.75Z" transform="translate(-69.41 -185.09)"/><path class="cls-1" d="M574.18,300.77l-10.53-4s-12,.71-16.76,16.68a36,36,0,0,1,5.34-3.58s-6.67,10.46-5.29,18.14c7.33,1,18-5.45,18-5.45a28.8,28.8,0,0,1-3.74,5.18C577.15,323,578,311.1,578,311.1Z" transform="translate(-69.41 -185.09)"/><path class="cls-3" d="M620.37,290.42l-8,31.37-33.14,9.74s23.19-18,6.86-34.32l20.48-20.49Z" transform="translate(-69.41 -185.09)"/><path class="cls-3" d="M583.49,253.54l-31.37,8-9.74,33.14s18-23.19,34.32-6.85l20.49-20.49Z" transform="translate(-69.41 -185.09)"/><path class="cls-4" d="M610.22,264.84A65.73,65.73,0,0,0,632,279.28c14.72-16.77,25.42-35.17,32.72-50.33a32.22,32.22,0,0,1-11.5-7.39,34.81,34.81,0,0,1-7.1-10.4c-.26-.57-.48-1.11-.68-1.61-15.15,7.3-33.57,18-50.35,32.7.5,1.2,1.12,2.57,1.88,4.09A72.23,72.23,0,0,0,610.22,264.84Z" transform="translate(-69.41 -185.09)"/><path class="cls-4" d="M655.26,219.47A29.23,29.23,0,0,0,666,226.26a216.78,216.78,0,0,0,11.5-29.45,216.19,216.19,0,0,0-29.38,11.47c.2.51.43,1.07.7,1.68A32.12,32.12,0,0,0,655.26,219.47Z" transform="translate(-69.41 -185.09)"/><path class="cls-4" d="M608.13,266.93a75,75,0,0,1-13.85-19.26c-.6-1.21-1.12-2.32-1.57-3.34-14.49,13.16-27.58,29.41-36,49.18a43.32,43.32,0,0,0,9.23,14.11,52,52,0,0,0,14.81,9.93c19.73-8.41,36-21.47,49.12-35.94A68.59,68.59,0,0,1,608.13,266.93Z" transform="translate(-69.41 -185.09)"/><path class="cls-5" d="M653.17,221.56a32.22,32.22,0,0,0,11.5,7.39c.44-.91.86-1.81,1.28-2.69a29.23,29.23,0,0,1-10.69-6.79,32.12,32.12,0,0,1-6.49-9.51c-.27-.61-.5-1.17-.7-1.68l-2.68,1.27c.2.5.42,1,.68,1.61A34.81,34.81,0,0,0,653.17,221.56Z" transform="translate(-69.41 -185.09)"/><path class="cls-5" d="M608.13,266.93a68.59,68.59,0,0,0,21.74,14.68c.7-.77,1.4-1.55,2.08-2.33a65.73,65.73,0,0,1-21.73-14.44,72.23,72.23,0,0,1-13.3-18.5c-.76-1.52-1.38-2.89-1.88-4.09-.78.69-1.56,1.38-2.33,2.08.45,1,1,2.13,1.57,3.34A75,75,0,0,0,608.13,266.93Z" transform="translate(-69.41 -185.09)"/><polygon class="cls-3" points="528.82 83.27 536.14 90.59 491.24 127.83 528.82 83.27"/><polygon class="cls-3" points="619.76 0 601.98 13.6 600.91 18.85 606.16 17.78 619.76 0"/><path class="cls-5" d="M643.17,246.42a10.84,10.84,0,1,1,0-15.33A10.85,10.85,0,0,1,643.17,246.42Z" transform="translate(-69.41 -185.09)"/><path class="cls-6" d="M635.51,250.82a12.07,12.07,0,1,1,8.53-3.53A12,12,0,0,1,635.51,250.82Zm0-21.68A9.63,9.63,0,1,0,642.3,232,9.55,9.55,0,0,0,635.51,229.14Z" transform="translate(-69.41 -185.09)"/><g class="cls-7"><path d="M677.45,196.81l-.06.06V197Z" transform="translate(-69.41 -185.09)"/><path d="M677.16,197.21H677s-41.1,79-105.15,115.33l8.74,5.12C650,288.08,675.76,201.57,677.16,197.21Z" transform="translate(-69.41 -185.09)"/></g></svg>